HIERARCHY
ROOT hip
{
  OFFSET 0 0 0
  CHANNELS 6 Xposition Yposition Zposition Zrotation Yrotation Xrotation
  JOINT abdomen
  {
    OFFSET 0 20.6881 -0.73152
    CHANNELS 3 Zrotation Xrotation Yrotation
    JOINT chest
    {
      OFFSET 0 11.7043 -0.48768
      CHANNELS 3 Zrotation Xrotation Yrotation
      JOINT neck
      {
        OFFSET 0 22.1894 -2.19456
        CHANNELS 3 Zrotation Xrotation Yrotation
        JOINT head
        {
          OFFSET -0.24384 7.07133 1.2192
          CHANNELS 3 Zrotation Xrotation Yrotation
          JOINT leftEye
          {
            OFFSET 4.14528 8.04674 8.04672
            CHANNELS 3 Zrotation Xrotation Yrotation
            End Site
            {
              OFFSET 1 0 0
            }
          }
          JOINT rightEye
          {
            OFFSET -3.6576 8.04674 8.04672
            CHANNELS 3 Zrotation Xrotation Yrotation
            End Site
            {
              OFFSET 1 0 0
            }
          }
        }
      }
      JOINT rCollar
      {
        OFFSET -2.68224 19.2634 -4.8768
        CHANNELS 3 Zrotation Xrotation Yrotation
        JOINT rShldr
        {
          OFFSET -8.77824 -1.95073 1.46304
          CHANNELS 3 Zrotation Xrotation Yrotation
          JOINT rForeArm
          {
            OFFSET -28.1742 -1.7115 0.48768
            CHANNELS 3 Zrotation Xrotation Yrotation
            JOINT rHand
            {
              OFFSET -22.5879 0.773209 7.07136
              CHANNELS 3 Zrotation Xrotation Yrotation
              JOINT rThumb1
              {
                OFFSET -1.2192 -0.487915 3.41376
                CHANNELS 3 Zrotation Xrotation Yrotation
                JOINT rThumb2
                {
                  OFFSET -3.37035 -0.52449 3.41376
                  CHANNELS 3 Zrotation Xrotation Yrotation
                  End Site
                  {
                    OFFSET -1.78271 -1.18214 1.43049
                  }
                }
              }
              JOINT rIndex1
              {
                OFFSET -7.75947 0.938293 5.60832
                CHANNELS 3 Zrotation Xrotation Yrotation
                JOINT rIndex2
                {
                  OFFSET -2.54057 -0.884171 1.56538
                  CHANNELS 3 Zrotation Xrotation Yrotation
                  End Site
                  {
                    OFFSET -1.62519 -0.234802 1.16502
                  }
                }
              }
              JOINT rMid1
              {
                OFFSET -8.24714 1.18213 3.41376
                CHANNELS 3 Zrotation Xrotation Yrotation
                JOINT rMid2
                {
                  OFFSET -3.10165 -0.590103 1.0647
                  CHANNELS 3 Zrotation Xrotation Yrotation
                  End Site
                  {
                    OFFSET -2.48547 -0.328903 0.83742
                  }
                }
              }
              JOINT rRing1
              {
                OFFSET -8.82822 0.546677 1.51678
                CHANNELS 3 Zrotation Xrotation Yrotation
                JOINT rRing2
                {
                  OFFSET -2.60934 -0.819778 -0.0198488
                  CHANNELS 3 Zrotation Xrotation Yrotation
                  End Site
                  {
                    OFFSET -2.33842 -0.294052 0.168128
                  }
                }
              }
              JOINT rPinky1
              {
                OFFSET -8.27202 -0.0477905 -0.4584
                CHANNELS 3 Zrotation Xrotation Yrotation
                JOINT rPinky2
                {
                  OFFSET -1.82734 -0.647385 -0.700984
                  CHANNELS 3 Zrotation Xrotation Yrotation
                  End Site
                  {
                    OFFSET -1.69225 -0.51767 -0.607171
                  }
                }
              }
            }
          }
        }
      }
      JOINT lCollar
      {
        OFFSET 2.68224 19.2634 -4.8768
        CHANNELS 3 Zrotation Xrotation Yrotation
        JOINT lShldr
        {
          OFFSET 8.77824 -1.95073 1.46304
          CHANNELS 3 Zrotation Xrotation Yrotation
          JOINT lForeArm
          {
            OFFSET 28.1742 -1.7115 0.48768
            CHANNELS 3 Zrotation Xrotation Yrotation
            JOINT lHand
            {
              OFFSET 22.5879 0.773209 7.07136
              CHANNELS 3 Zrotation Xrotation Yrotation
              JOINT lThumb1
              {
                OFFSET 1.2192 -0.487915 3.41376
                CHANNELS 3 Zrotation Xrotation Yrotation
                JOINT lThumb2
                {
                  OFFSET 3.37035 -0.52449 3.41376
                  CHANNELS 3 Zrotation Xrotation Yrotation
                  End Site
                  {
                    OFFSET 1.78271 -1.18214 1.43049
                  }
                }
              }
              JOINT lIndex1
              {
                OFFSET 7.75947 0.938293 5.60832
                CHANNELS 3 Zrotation Xrotation Yrotation
                JOINT lIndex2
                {
                  OFFSET 2.54057 -0.884171 1.56538
                  CHANNELS 3 Zrotation Xrotation Yrotation
                  End Site
                  {
                    OFFSET 1.62519 -0.234802 1.16502
                  }
                }
              }
              JOINT lMid1
              {
                OFFSET 8.24714 1.18213 3.41376
                CHANNELS 3 Zrotation Xrotation Yrotation
                JOINT lMid2
                {
                  OFFSET 3.10165 -0.590103 1.0647
                  CHANNELS 3 Zrotation Xrotation Yrotation
                  End Site
                  {
                    OFFSET 2.48547 -0.328903 0.83742
                  }
                }
              }
              JOINT lRing1
              {
                OFFSET 8.82822 0.546677 1.51678
                CHANNELS 3 Zrotation Xrotation Yrotation
                JOINT lRing2
                {
                  OFFSET 2.60934 -0.819778 -0.0198488
                  CHANNELS 3 Zrotation Xrotation Yrotation
                  End Site
                  {
                    OFFSET 2.33842 -0.294052 0.168128
                  }
                }
              }
              JOINT lPinky1
              {
                OFFSET 8.27202 -0.0477905 -0.4584
                CHANNELS 3 Zrotation Xrotation Yrotation
                JOINT lPinky2
                {
                  OFFSET 1.82734 -0.647385 -0.700984
                  CHANNELS 3 Zrotation Xrotation Yrotation
                  End Site
                  {
                    OFFSET 1.69225 -0.51767 -0.607171
                  }
                }
              }
            }
          }
        }
      }
    }
  }
  JOINT rButtock
  {
    OFFSET -8.77824 4.35084 1.2192
    CHANNELS 3 Zrotation Xrotation Yrotation
    JOINT rThigh
    {
      OFFSET 0 -1.70687 -2.19456
      CHANNELS 3 Zrotation Xrotation Yrotation
      JOINT rShin
      {
        OFFSET 0 -36.8199 0.73152
        CHANNELS 3 Zrotation Xrotation Yrotation
        JOINT rFoot
        {
          OFFSET 0.73152 -45.1104 -5.12064
          CHANNELS 3 Zrotation Xrotation Yrotation
          End Site
          {
            OFFSET -1.1221 -3.69964 12.103
          }
        }
      }
    }
  }
  JOINT lButtock
  {
    OFFSET 8.77824 4.35084 1.2192
    CHANNELS 3 Zrotation Xrotation Yrotation
    JOINT lThigh
    {
      OFFSET 0 -1.70687 -2.19456
      CHANNELS 3 Zrotation Xrotation Yrotation
      JOINT lShin
      {
        OFFSET 0 -36.8199 0.73152
        CHANNELS 3 Zrotation Xrotation Yrotation
        JOINT lFoot
        {
          OFFSET -0.73152 -45.1104 -5.12064
          CHANNELS 3 Zrotation Xrotation Yrotation
          End Site
          {
            OFFSET 1.1221 -3.69964 12.103
          }
        }
      }
    }
  }
}
MOTION
Frames:	5
Frame Time:	0.03333
-0.1842699944972992 68.31439733505249 0.8980000391602516 6.744009494781494 29.876693725585938 6.253998279571533 -13.226792335510254 16.596298217773438 3.108259677886963 2.2741522789001465 -12.976398468017578 0.602142333984375 -8.7875394821167 15.568896293640137 -12.624496459960938 13.201891899108887 -28.761808395385742 -21.668899536132812 -0.0 0.0 -0.0 -0.0 0.0 -0.0 -0.0 0.0 -0.0 -2.317692756652832 -31.788999557495117 62.741390228271484 -28.393394470214844 -34.15370178222656 73.95060729980469 -0.08718530833721161 8.393694877624512 1.1880905628204346 -0.0 0.0 -0.0 -0.0 0.0 -0.0 -0.0 0.0 -0.0 7.730876445770264 5.474895000457764 0.41732463240623474 -0.0 0.0 -0.0 2.9054994583129883 0.9650753736495972 0.10300876200199127 -0.0 0.0 -0.0 10.278595924377441 0.7317469120025635 0.026285577565431595 -0.0 0.0 -0.0 2.221662759780884 -0.7335850596427917 -0.20831839740276337 -0.0 0.0 -0.0 -112.21700286865234 51.5294075012207 49.752403259277344 28.000200271606445 -40.425594329833984 -84.67890167236328 10.588361740112305 -64.08332824707031 16.82496452331543 -0.0 0.0 -0.0 -0.0 0.0 -0.0 -0.0 0.0 -0.0 -7.730876445770264 5.474895000457764 -0.41732463240623474 -0.0 0.0 -0.0 -2.9054994583129883 0.9650753736495972 -0.10300876200199127 -0.0 0.0 -0.0 -10.278595924377441 0.7317469120025635 -0.026285577565431595 -0.0 0.0 -0.0 -2.221662759780884 -0.7335850596427917 0.20831839740276337 -0.0 0.0 -0.0 -49.033103942871094 -57.41610336303711 -43.3253059387207 -2.595601797103882 73.43892669677734 3.250737428665161 -3.334472417831421 -7.774197578430176 -9.37882137298584 -0.0 0.0 -0.0 10.583300590515137 5.908336639404297 6.380177021026611 -0.053565774112939835 35.48249435424805 -2.1067731380462646 10.079594612121582 -10.630602836608887 33.365501403808594
-0.40342998690903187 68.17190051078796 1.9780000671744347 6.79298210144043 29.226097106933594 6.960999488830566 -12.885995864868164 16.627103805541992 2.6050024032592773 2.0016167163848877 -13.21670913696289 0.44364169239997864 -8.706648826599121 15.473109245300293 -12.358400344848633 12.981894493103027 -29.029193878173828 -21.167606353759766 -0.0 0.0 -0.0 -0.0 0.0 -0.0 -0.0 0.0 -0.0 -2.434723138809204 -31.389007568359375 63.296897888183594 -28.39539337158203 -34.19369888305664 74.01689910888672 -0.061144910752773285 7.038083076477051 0.9942626953125 -0.0 0.0 -0.0 -0.0 0.0 -0.0 -0.0 0.0 -0.0 7.730876445770264 5.474895000457764 0.41732463240623474 -0.0 0.0 -0.0 2.9054994583129883 0.9650753736495972 0.10300876200199127 -0.0 0.0 -0.0 10.278595924377441 0.7317469120025635 0.026285577565431595 -0.0 0.0 -0.0 2.221662759780884 -0.7335850596427917 -0.20831839740276337 -0.0 0.0 -0.0 -111.9939956665039 52.41640853881836 49.292301177978516 28.07360076904297 -40.007389068603516 -83.93488311767578 9.72897720336914 -62.80430221557617 15.873369216918945 -0.0 0.0 -0.0 -0.0 0.0 -0.0 -0.0 0.0 -0.0 -7.730876445770264 5.474895000457764 -0.41732463240623474 -0.0 0.0 -0.0 -2.9054994583129883 0.9650753736495972 -0.10300876200199127 -0.0 0.0 -0.0 -10.278595924377441 0.7317469120025635 -0.026285577565431595 -0.0 0.0 -0.0 -2.221662759780884 -0.7335850596427917 0.20831839740276337 -0.0 0.0 -0.0 -49.74018096923828 -58.01520538330078 -44.4793815612793 -2.8058574199676514 74.43949890136719 3.5165562629699707 -3.9323923587799072 -8.062490463256836 -11.309807777404785 -0.0 0.0 -0.0 10.237015724182129 6.95206356048584 6.1433539390563965 -0.09503535181283951 33.6393928527832 -2.094160795211792 9.571452140808105 -10.141895294189453 33.46099853515625
-0.6410149857401848 68.02160143852234 3.139000106602907 6.833977222442627 28.55179786682129 7.675028324127197 -12.559422492980957 16.41407012939453 2.0912704467773438 1.7755908966064453 -13.405220985412598 0.2858355641365051 -8.747840881347656 15.377184867858887 -12.034198760986328 12.942501068115234 -29.367902755737305 -20.499996185302734 -0.0 0.0 -0.0 -0.0 0.0 -0.0 -0.0 0.0 -0.0 -2.6526355743408203 -30.946304321289062 63.83819580078125 -28.39639663696289 -34.21940231323242 74.0606918334961 -0.03894126042723656 5.623946189880371 0.7928037643432617 -0.0 0.0 -0.0 -0.0 0.0 -0.0 -0.0 0.0 -0.0 7.730876445770264 5.474895000457764 0.41732463240623474 -0.0 0.0 -0.0 2.9054994583129883 0.9650753736495972 0.10300876200199127 -0.0 0.0 -0.0 10.278595924377441 0.7317469120025635 0.026285577565431595 -0.0 0.0 -0.0 2.221662759780884 -0.7335850596427917 -0.20831839740276337 -0.0 0.0 -0.0 -111.85497283935547 53.33000946044922 48.82139205932617 28.12579917907715 -39.687801361083984 -83.36579895019531 8.727678298950195 -61.0817985534668 14.73934555053711 -0.0 0.0 -0.0 -0.0 0.0 -0.0 -0.0 0.0 -0.0 -7.730876445770264 5.474895000457764 -0.41732463240623474 -0.0 0.0 -0.0 -2.9054994583129883 0.9650753736495972 -0.10300876200199127 -0.0 0.0 -0.0 -10.278595924377441 0.7317469120025635 -0.026285577565431595 -0.0 0.0 -0.0 -2.221662759780884 -0.7335850596427917 0.20831839740276337 -0.0 0.0 -0.0 -50.43130111694336 -58.657711029052734 -45.65870666503906 -3.026914358139038 75.4049301147461 3.8118715286254883 -4.635215759277344 -7.940378665924072 -13.768099784851074 -0.0 0.0 -0.0 9.903295516967773 8.255654335021973 5.872892379760742 -0.1530468463897705 31.369787216186523 -2.069540500640869 9.128785133361816 -9.941232681274414 33.47029495239258
-0.8928799768909812 67.89640188217163 4.492800123989582 6.792973041534424 27.811798095703125 8.522997856140137 -12.194294929504395 15.994516372680664 1.5253264904022217 1.560390591621399 -13.585786819458008 0.118314728140831 -8.80162239074707 15.27230167388916 -11.674299240112305 12.92389965057373 -29.636796951293945 -19.758201599121094 -0.0 0.0 -0.0 -0.0 0.0 -0.0 -0.0 0.0 -0.0 -2.9244894981384277 -30.374710083007812 64.33960723876953 -28.394699096679688 -34.18058776855469 73.99589538574219 -0.023997144773602486 4.418098449707031 0.6220957040786743 -0.0 0.0 -0.0 -0.0 0.0 -0.0 -0.0 0.0 -0.0 7.730876445770264 5.474895000457764 0.41732463240623474 -0.0 0.0 -0.0 2.9054994583129883 0.9650753736495972 0.10300876200199127 -0.0 0.0 -0.0 10.278595924377441 0.7317469120025635 0.026285577565431595 -0.0 0.0 -0.0 2.221662759780884 -0.7335850596427917 -0.20831839740276337 -0.0 0.0 -0.0 -111.91000366210938 54.31199645996094 48.40899658203125 28.170000076293945 -39.39829635620117 -82.85018920898438 7.596176624298096 -58.77313995361328 13.417803764343262 -0.0 0.0 -0.0 -0.0 0.0 -0.0 -0.0 0.0 -0.0 -7.730876445770264 5.474895000457764 -0.41732463240623474 -0.0 0.0 -0.0 -2.9054994583129883 0.9650753736495972 -0.10300876200199127 -0.0 0.0 -0.0 -10.278595924377441 0.7317469120025635 -0.026285577565431595 -0.0 0.0 -0.0 -2.221662759780884 -0.7335850596427917 0.20831839740276337 -0.0 0.0 -0.0 -51.08319854736328 -59.18879699707031 -46.9391975402832 -3.2553675174713135 76.30753326416016 4.127013683319092 -5.372071266174316 -7.704923152923584 -16.39629364013672 -0.0 0.0 -0.0 9.585335731506348 9.726208686828613 5.249174118041992 -0.20882581174373627 28.844905853271484 -2.0403597354888916 8.460694313049316 -9.553260803222656 33.340003967285156
-1.161656971089542 67.79469847679138 5.965600162744522 6.699980735778809 27.201501846313477 9.301012992858887 -11.76641845703125 15.410181045532227 0.811659574508667 1.3194963932037354 -13.856006622314453 -0.09487978368997574 -8.776954650878906 15.133905410766602 -11.294508934020996 12.79920768737793 -29.627901077270508 -19.0181884765625 -0.0 0.0 -0.0 -0.0 0.0 -0.0 -0.0 0.0 -0.0 -3.2261791229248047 -29.584604263305664 64.78069305419922 -28.383007049560547 -33.95709228515625 73.62499237060547 -0.02130407653748989 4.162940502166748 0.5861654281616211 -0.0 0.0 -0.0 -0.0 0.0 -0.0 -0.0 0.0 -0.0 7.730876445770264 5.474895000457764 0.41732463240623474 -0.0 0.0 -0.0 2.9054994583129883 0.9650753736495972 0.10300876200199127 -0.0 0.0 -0.0 10.278595924377441 0.7317469120025635 0.026285577565431595 -0.0 0.0 -0.0 2.221662759780884 -0.7335850596427917 -0.20831839740276337 -0.0 0.0 -0.0 -112.44200134277344 55.368900299072266 48.30800247192383 28.206695556640625 -39.12959671020508 -82.37920379638672 6.228417873382568 -55.51676940917969 11.803812980651855 -0.0 0.0 -0.0 -0.0 0.0 -0.0 -0.0 0.0 -0.0 -7.730876445770264 5.474895000457764 -0.41732463240623474 -0.0 0.0 -0.0 -2.9054994583129883 0.9650753736495972 -0.10300876200199127 -0.0 0.0 -0.0 -10.278595924377441 0.7317469120025635 -0.026285577565431595 -0.0 0.0 -0.0 -2.221662759780884 -0.7335850596427917 0.20831839740276337 -0.0 0.0 -0.0 -51.85869598388672 -59.40898895263672 -48.56990051269531 -3.4813385009765625 77.19609069824219 4.461413383483887 -6.237125873565674 -7.5570173263549805 -19.288694381713867 -0.0 0.0 -0.0 9.298949241638184 11.41830062866211 3.780813455581665 -0.2469075322151184 25.98529815673828 -2.0091779232025146 7.235466480255127 -8.551015853881836 32.96439743041992
